<svg xmlns="http://www.w3.org/2000/svg" width="64" height="37.344" viewBox="0 0 64 37.344">
  <g id="noun_agreement_2131101" transform="translate(-0.998 -14.813)">
    <g id="组_164" data-name="组 164" transform="translate(0.998 14.813)">
      <path id="路径_36" data-name="路径 36" d="M2.942,37.811l8.253,2.719a2.718,2.718,0,0,0,3.2-1.165L28.283,50.433c.1.1.1.1.194.1,2.33.971,4.952,1.359,6.894-.194L36.439,51.4c1.068.971,3.884,1.068,4.952-.1a3.3,3.3,0,0,0,.68-1.456,5.188,5.188,0,0,0,2.719-.583,3.388,3.388,0,0,0,1.845-2.621c2.33.194,3.787-.777,4.369-2.33a3.617,3.617,0,0,0-.194-3.01l1.456-.971A2.9,2.9,0,0,0,54.5,41.4a4.873,4.873,0,0,0,1.165-.194l7.573-3.3a2.969,2.969,0,0,0,1.553-3.787L58.284,18.1A3.07,3.07,0,0,0,54.5,16.451l-8.253,3.107A2.936,2.936,0,0,0,44.5,21.5c-6.8-2.913-17.768-2.719-25.147-1.845A3.074,3.074,0,0,0,17.7,17.81L9.738,14.995a2.823,2.823,0,0,0-3.69,1.845L1.1,34.413A2.782,2.782,0,0,0,2.942,37.811Zm46.216,5.826c-.485,1.262-1.748,1.262-3.01.971l-6.8-7.962a.964.964,0,1,0-1.456,1.262l6.8,7.962c0,.388-.1,1.359-.777,1.651a4.355,4.355,0,0,1-2.136.291l-7.185-8.932a.971.971,0,0,0-1.553,1.165l7.185,8.932c-.1,1.456-1.068,1.068-1.165,1.165-1.845,0-1.359-.485-3.01-1.845l-5.728-6.991a.964.964,0,0,0-1.456,1.262l5.243,6.311c-1.359.971-3.2.583-4.66-.1L14.981,37.423c.388-1.651-1.553,5.826,4.175-15.632.971-.1,3.01-.291,5.534-.485-1.359,2.427-3.3,6.8-1.165,9.515,2.913,3.592,7.864-.777,9.9-1.942.583,0,7.088.291,15.049,12.719A1.51,1.51,0,0,1,49.158,43.637ZM46.925,21.5l8.253-3.107a1.01,1.01,0,0,1,1.262.583l6.6,15.923a.963.963,0,0,1-.485,1.262l-2.621,1.165A2.742,2.742,0,0,0,61.391,34.9a2.816,2.816,0,0,0-5.631,0,2.734,2.734,0,0,0,3.592,2.621l-4.466,1.942a.963.963,0,0,1-1.262-.485c-.194-.68-7.088-16.02-7.282-16.214A.971.971,0,0,1,46.925,21.5ZM59.449,34.8a.874.874,0,1,1-.874-.874A.87.87,0,0,1,59.449,34.8ZM44.789,23.927l6.7,14.661-1.651,1.068C41.682,27.422,34.5,26.549,33.04,26.937a5.362,5.362,0,0,0-1.262.777c-2.621,1.845-5.34,3.5-6.6,1.845-1.651-2.039.68-6.408,1.942-8.447C32.458,21.014,39.934,21.4,44.789,23.927ZM2.942,35,7.991,17.422a.777.777,0,0,1,1.068-.583l7.864,3.01a.851.851,0,0,1,.485.971C11.1,44.7,13.234,36.452,12.748,38.2a.837.837,0,0,1-1.068.583L3.427,36.064A1.139,1.139,0,0,1,2.942,35Z" transform="translate(-0.998 -14.813)" fill="#f38801"/>
      <path id="路径_37" data-name="路径 37" d="M8,37.4a2.9,2.9,0,1,0-2.9-2.9A2.9,2.9,0,0,0,8,37.4Zm0-3.8a.9.9,0,0,1,.9.9.967.967,0,0,1-.9.9.967.967,0,0,1-.9-.9A.9.9,0,0,1,8,33.6Z" transform="translate(-0.998 -15.388)" fill="#f38801"/>
    </g>
  </g>
</svg>
