<svg xmlns="http://www.w3.org/2000/svg" width="64.033" height="151.505" viewBox="0 0 64.033 151.505">
  <g id="noun_leader_1871558" transform="translate(-20 -4.899)">
    <path id="路径_29" data-name="路径 29" d="M20,64.693V87.371a9.348,9.348,0,0,0,9.338,9.338,9.243,9.243,0,0,0,4-.936v35.621a10.628,10.628,0,0,0,18.676,6.985,10.628,10.628,0,0,0,18.676-6.985V95.773a9.243,9.243,0,0,0,4,.936,9.348,9.348,0,0,0,9.338-9.338V64.693A24.027,24.027,0,0,0,63.638,40.984a16.008,16.008,0,1,0-23.244,0A24.027,24.027,0,0,0,20,64.693ZM52.016,19.336A10.672,10.672,0,1,1,41.344,30.008,10.683,10.683,0,0,1,52.016,19.336Zm-8,26.68H60.02A18.7,18.7,0,0,1,78.7,64.693V87.371a4,4,0,1,1-8,0V62.025H65.357v69.369a5.336,5.336,0,1,1-10.672,0V91.373H49.348v40.02a5.336,5.336,0,1,1-10.672,0V62.025H33.34V87.371a4,4,0,1,1-8,0V64.693A18.7,18.7,0,0,1,44.012,46.016Z" transform="translate(0 14.338)" fill="#f38802"/>
    <path id="路径_31" data-name="路径 31" d="M30.954,5.457l.123,17.564,5.336-.037L36.29,5.4Z" transform="translate(18.272)" fill="none" stroke="#f38801" stroke-width="1"/>
    <path id="路径_34" data-name="路径 34" d="M0,.053.123,17.617l5.336-.037L5.336,0Z" transform="translate(22.452 15.25) rotate(-45)" fill="none" stroke="#f38801" stroke-width="1"/>
    <path id="路径_33" data-name="路径 33" d="M0,.053.123,17.617l5.336-.037L5.336,0Z" transform="translate(77.598 11.39) rotate(45)" fill="none" stroke="#f38801" stroke-width="1"/>
  </g>
</svg>
