<svg xmlns="http://www.w3.org/2000/svg" width="46.187" height="34.759" viewBox="0 0 46.187 34.759">
  <g id="noun_user-approved_1923774" transform="translate(0 -0.813)">
    <path id="Shape" d="M29.714,35.571V31a6.857,6.857,0,0,0-6.857-6.857h-16A6.857,6.857,0,0,0,0,31v4.571Zm-2.286-2.286H2.286V31a4.577,4.577,0,0,1,4.571-4.571h16A4.577,4.577,0,0,1,27.429,31ZM14.857,5.857a5.714,5.714,0,1,1-5.714,5.714,5.714,5.714,0,0,1,5.714-5.714m0-2.286a8,8,0,1,0,8,8A8,8,0,0,0,14.857,3.571Zm18.286,11.9L26.955,9.286,28.571,7.67l4.571,4.571L44.571.813l1.616,1.616Z" fill="#f38801"/>
  </g>
</svg>
