<svg id="police-hat" xmlns="http://www.w3.org/2000/svg" width="64" height="44.806" viewBox="0 0 64 44.806">
  <path id="Path" d="M22.553,16.3H26.3v3.744H22.553Z" transform="translate(7.518 5.335)" fill="#f38801"/>
  <path id="Shape" d="M49.663.073H14.6L0,12.969,6.337,24.916v8.532l.175.376c.21.451,5.388,11.054,25.7,11.054,19.685,0,25.407-10.533,25.641-10.981l.212-.407V25.07L64,12.948ZM10.081,26.813H22.542a6.568,6.568,0,0,0,2.806,4.349H10.081Zm16.112-1.067V18.364a20.339,20.339,0,0,1,11.5,0v7.381a2.791,2.791,0,0,1-1.319,2.361l-4.431,2.728-4.431-2.728A2.79,2.79,0,0,1,26.193,25.745Zm15.152,1.067H54.32V31.16H38.539A6.567,6.567,0,0,0,41.344,26.812ZM14.257,36.645a17.153,17.153,0,0,1-2.186-1.739l40.132,0c-2.9,2.638-8.9,6.231-19.992,6.231-5.152,0-12.448-.779-17.953-4.49ZM54.875,23.067H41.437V15.7l-1.229-.45a24.084,24.084,0,0,0-16.531,0l-1.229.45v7.365H9.6L4.69,13.821l11.331-10H48.228L59.393,13.842Z" transform="translate(0 -0.073)" fill="#f38801"/>
</svg>
