<svg xmlns="http://www.w3.org/2000/svg" xmlns:xlink="http://www.w3.org/1999/xlink" width="181.818" height="200" viewBox="0 0 181.818 200">

  <defs>
    <linearGradient id="linear-gradient" x1="0.485" y1="0.544" x2="0.587" y2="0.224" gradientUnits="objectBoundingBox">
      <stop offset="0" stop-color="#ab2c37"/>
      <stop offset="1" stop-color="#ff7a85"/>
    </linearGradient>
    <linearGradient id="linear-gradient-2" x1="0.341" y1="0.676" x2="0.73" y2="0.277" gradientUnits="objectBoundingBox">
      <stop offset="0" stop-color="#ff4757"/>
      <stop offset="1" stop-color="#ff7a85"/>
    </linearGradient>
    <linearGradient id="linear-gradient-3" x1="0.479" y1="0.411" x2="0.569" y2="0.179" gradientUnits="objectBoundingBox">
      <stop offset="0" stop-color="#c5baeb"/>
      <stop offset="1" stop-color="#d7d1eb"/>
    </linearGradient>
    <linearGradient id="linear-gradient-5" x1="0.341" y1="0.676" x2="0.73" y2="0.278" xlink:href="#linear-gradient-2"/>
  </defs>
  <g id="distance" transform="translate(-0.103 0)">
    <g id="Group" transform="translate(20.069 39.124)">
      <path id="Path" d="M4.7,21.094a3.1,3.1,0,1,1,3.1-3.1,3.106,3.106,0,0,1-3.1,3.1Z" transform="translate(3.128 30.129)" fill="#7662bd"/>
      <path id="Shape" d="M40.05,160.907a3.139,3.139,0,1,1,.018,0Zm9.431-3.781a3.129,3.129,0,1,1,3.755,2.334,3.5,3.5,0,0,1-.707.081A3.131,3.131,0,0,1,49.481,157.126Zm-22.6,2.2a3.133,3.133,0,1,1,.739.087,3.324,3.324,0,0,1-.739-.087Zm34.658-5.687a3.1,3.1,0,0,1,1.427-4.153h.006a3.138,3.138,0,0,1,4.186,1.415,3.094,3.094,0,0,1-1.427,4.154,3.135,3.135,0,0,1-4.192-1.415Zm-47.107,1.148a3.1,3.1,0,0,1-1.383-4.172,3.149,3.149,0,0,1,4.206-1.372,3.1,3.1,0,0,1,1.383,4.172,3.137,3.137,0,0,1-2.8,1.707,3.177,3.177,0,0,1-1.408-.335Zm58.147-7.1a3.093,3.093,0,0,1,1.139-4.246,3.143,3.143,0,0,1,4.274,1.13,3.094,3.094,0,0,1-1.139,4.247,3.181,3.181,0,0,1-1.565.416A3.127,3.127,0,0,1,72.581,147.683Zm-68.9-1.856a3.086,3.086,0,0,1,.933-4.29,3.147,3.147,0,0,1,4.324.931,3.087,3.087,0,0,1-.932,4.29,3.136,3.136,0,0,1-4.324-.931Zm79.768-4.4a3.09,3.09,0,0,1,1.139-4.24,3.146,3.146,0,0,1,4.281,1.13,3.092,3.092,0,0,1-1.139,4.24,3.139,3.139,0,0,1-4.281-1.13Zm10.877-6.252a3.09,3.09,0,0,1,1.139-4.24,3.135,3.135,0,0,1,4.274,1.124A3.094,3.094,0,0,1,98.6,136.3a3.148,3.148,0,0,1-4.274-1.13ZM3,135.384a3.1,3.1,0,1,1,.169.006c-.056,0-.113-.006-.169-.006Zm102.2-6.469a3.086,3.086,0,0,1,1.133-4.24,3.151,3.151,0,0,1,4.281,1.13,3.116,3.116,0,0,1-2.7,4.662,3.126,3.126,0,0,1-2.709-1.552Zm10.871-6.252a3.09,3.09,0,0,1,1.139-4.24,3.14,3.14,0,0,1,4.274,1.124,3.1,3.1,0,0,1-1.133,4.246,3.2,3.2,0,0,1-1.571.416,3.136,3.136,0,0,1-2.71-1.546ZM5.6,123.234a3.087,3.087,0,0,1-.457-4.364,3.147,3.147,0,0,1,4.406-.447,3.087,3.087,0,0,1,.45,4.365,3.147,3.147,0,0,1-4.4.447ZM14.96,115.1a3.09,3.09,0,0,1,1.139-4.24,3.145,3.145,0,0,1,4.281,1.13,3.11,3.11,0,0,1-2.71,4.656A3.135,3.135,0,0,1,14.96,115.1Zm10.877-6.246a3.092,3.092,0,0,1,1.145-4.24,3.137,3.137,0,0,1,4.274,1.13,3.106,3.106,0,0,1-2.7,4.656,3.139,3.139,0,0,1-2.717-1.546ZM36.72,102.61a3.09,3.09,0,0,1,1.139-4.24,3.136,3.136,0,0,1,4.274,1.13A3.084,3.084,0,0,1,41,103.74a3.132,3.132,0,0,1-4.275-1.13ZM47.6,96.364a3.092,3.092,0,0,1,1.145-4.24,3.138,3.138,0,0,1,4.274,1.13,3.12,3.12,0,0,1-2.7,4.662A3.143,3.143,0,0,1,47.6,96.364Zm10.883-6.245a3.085,3.085,0,0,1,1.139-4.24,3.142,3.142,0,0,1,4.274,1.13,3.084,3.084,0,0,1-1.139,4.24,3.132,3.132,0,0,1-4.275-1.13Zm10.877-6.246a3.092,3.092,0,0,1,1.145-4.24,3.148,3.148,0,0,1,4.274,1.13,3.1,3.1,0,0,1-1.138,4.246,3.176,3.176,0,0,1-1.564.416,3.144,3.144,0,0,1-2.717-1.552Zm10.883-6.245a3.09,3.09,0,0,1,1.138-4.24,3.147,3.147,0,0,1,4.274,1.13,3.091,3.091,0,0,1-1.138,4.247,3.18,3.18,0,0,1-1.564.416,3.114,3.114,0,0,1-2.71-1.552Zm10.877-6.246a3.093,3.093,0,0,1,1.146-4.24,3.144,3.144,0,0,1,4.274,1.136,3.091,3.091,0,0,1-1.139,4.24,3.192,3.192,0,0,1-1.565.416,3.145,3.145,0,0,1-2.716-1.552ZM102,65.136a3.091,3.091,0,0,1,1.139-4.24,3.144,3.144,0,0,1,4.274,1.136,3.086,3.086,0,0,1-1.139,4.24,3.178,3.178,0,0,1-1.565.416A3.112,3.112,0,0,1,102,65.136ZM112.878,58.9a3.1,3.1,0,0,1,1.145-4.246,3.144,3.144,0,0,1,4.274,1.136,3.11,3.11,0,0,1-2.709,4.656,3.136,3.136,0,0,1-2.71-1.546Zm10.883-6.245A3.093,3.093,0,0,1,124.9,48.4a3.144,3.144,0,0,1,4.274,1.136,3.106,3.106,0,0,1-2.7,4.656,3.121,3.121,0,0,1-2.71-1.546Zm11-6.122a3.082,3.082,0,0,1,.112-4.383V42.14a3.151,3.151,0,0,1,4.425.118,3.09,3.09,0,0,1-.113,4.389,3.149,3.149,0,0,1-4.424-.118ZM16.1,43.469a3.092,3.092,0,0,1,1.145-4.24,3.144,3.144,0,0,1,4.274,1.136,3.092,3.092,0,0,1-1.145,4.24,3.176,3.176,0,0,1-1.564.416,3.127,3.127,0,0,1-2.71-1.552Zm10.883-6.233A3.09,3.09,0,0,1,28.128,33a3.142,3.142,0,0,1,4.274,1.13,3.1,3.1,0,0,1-1.145,4.247,3.144,3.144,0,0,1-4.274-1.136Zm115.341-.583a3.133,3.133,0,1,1,.557.05,3.559,3.559,0,0,1-.557-.05ZM37.872,31a3.092,3.092,0,0,1,1.145-4.24,3.144,3.144,0,0,1,4.274,1.136,3.123,3.123,0,0,1-5.42,3.1Zm10.883-6.233a3.092,3.092,0,0,1,1.145-4.24,3.144,3.144,0,0,1,4.274,1.136,3.11,3.11,0,0,1-2.7,4.656,3.145,3.145,0,0,1-2.717-1.552Zm89.676-2a3.1,3.1,0,0,1,1.483-4.141,3.139,3.139,0,0,1,4.168,1.477,3.124,3.124,0,0,1-5.651,2.664ZM59.645,18.53a3.092,3.092,0,0,1,1.145-4.24,3.144,3.144,0,0,1,4.274,1.136,3.092,3.092,0,0,1-1.145,4.24,3.179,3.179,0,0,1-1.565.416,3.126,3.126,0,0,1-2.709-1.552Zm71.52-3.29A3.092,3.092,0,0,1,130.02,11a3.144,3.144,0,0,1,4.274-1.136,3.092,3.092,0,0,1,1.145,4.24,3.143,3.143,0,0,1-2.71,1.552,3.175,3.175,0,0,1-1.564-.416ZM70.528,12.3a3.091,3.091,0,0,1,1.145-4.24,3.142,3.142,0,0,1,4.274,1.13,3.12,3.12,0,0,1-2.709,4.662,3.143,3.143,0,0,1-2.71-1.552Zm49.9-2.608a3.091,3.091,0,0,1-1.74-4.035,3.129,3.129,0,0,1,4.062-1.726h.006a3.093,3.093,0,0,1,1.74,4.029,3.128,3.128,0,0,1-2.9,1.956,3.193,3.193,0,0,1-1.164-.223ZM81.674,6.535A3.1,3.1,0,0,1,83.69,2.624a3.108,3.108,0,1,1,1.927,5.91,3.282,3.282,0,0,1-.964.149,3.137,3.137,0,0,1-2.979-2.148Zm27.342.087a3.114,3.114,0,1,1,.47.038,3.042,3.042,0,0,1-.47-.038ZM93.828,3.393a3.13,3.13,0,1,1,3.379,2.838c-.088.006-.175.012-.263.012A3.127,3.127,0,0,1,93.828,3.393Z" transform="translate(-0.036 -0.031)" fill="#7662bd"/>
      <path id="Path-2" data-name="Path" d="M44.564,43.1a3.106,3.106,0,1,1,2.2-.913A3.152,3.152,0,0,1,44.564,43.1Z" transform="translate(85.231 74.803)" fill="#7662bd"/>
    </g>
    <ellipse id="Oval" cx="20.65" cy="11.682" rx="20.65" ry="11.682" transform="translate(5.898 78.217) rotate(-6.947)" fill="#7662bd"/>
    <g id="Group-2" data-name="Group" transform="translate(0.103 0)">
      <path id="Path-3" data-name="Path" d="M45.914,16.173,48.053,7.3,38.985,2.064C34.619-.962,28.621-.782,22.049,3.408,10.126,11.009.5,29.587.116,45.713c-.167,7.015,1.39,12.535,4.134,16.182l0,.006L18.923,80.668a2.83,2.83,0,0,0,.893.766l9.1,5.252,8.615-35.734,4.455-10.84,0,0a54.425,54.425,0,0,0,4.146-19.955A37.53,37.53,0,0,0,45.914,16.173Z" transform="translate(-0.103 0)" fill="url(#linear-gradient)"/>
      <path id="Path-4" data-name="Path" d="M49.087,21.863C49.087,4.446,38.2-3.3,25.009,5.115c-11.922,7.6-21.549,26.179-21.933,42.3C2.909,54.434,4.466,59.954,7.21,63.6l0,.006L21.884,82.375c2.059,2.633,6.324.171,8.383-4.84L44.945,41.82l0,0A54.432,54.432,0,0,0,49.087,21.863Z" transform="translate(5.907 3.463)" fill="url(#linear-gradient-2)"/>
      <path id="Path-5" data-name="Path" d="M37.674,10.176l-6.77-3.9h0c-2.672-1.416-6.1-1.214-9.85.948C12.533,12.147,5.626,25.346,5.626,36.707c0,6.246,2.091,10.631,5.387,12.5l0,.005L17.2,52.784Z" transform="translate(11.108 10.917)" fill="url(#linear-gradient-3)"/>
      <ellipse id="Oval-2" data-name="Oval" cx="23.687" cy="13.4" rx="23.687" ry="13.4" transform="matrix(0.392, -0.92, 0.92, 0.392, 16.908, 58.932)" fill="#e9e5f6"/>
    </g>
    <ellipse id="Oval-3" data-name="Oval" cx="20.65" cy="11.682" rx="20.65" ry="11.682" transform="translate(127.582 145.925) rotate(-6.947)" fill="#7662bd"/>
    <g id="Group-3" data-name="Group" transform="translate(121.744 67.978)">
      <path id="Path-6" data-name="Path" d="M45.864,16.182,48,7.31,38.934,2.074C34.568-.952,28.57-.772,22,3.418,10.076,11.019.448,29.6.065,45.722-.1,52.737,1.455,58.258,4.2,61.9l0,.006L18.873,80.678a2.829,2.829,0,0,0,.893.766l9.1,5.252,8.616-35.734,4.455-10.84,0,0a54.426,54.426,0,0,0,4.146-19.955,37.528,37.528,0,0,0-.212-3.984Z" transform="translate(-0.053 -0.01)" fill="url(#linear-gradient)"/>
      <path id="Path-7" data-name="Path" d="M49.036,21.873c0-17.417-10.884-25.16-24.078-16.749C13.036,12.726,3.409,31.3,3.025,47.429c-.167,7.015,1.39,12.535,4.134,16.182l0,.006L21.833,82.385c2.059,2.633,6.324.171,8.383-4.84L44.894,41.83l0,0a54.441,54.441,0,0,0,4.146-19.955Z" transform="translate(5.958 3.453)" fill="url(#linear-gradient-5)"/>
      <path id="Path-8" data-name="Path" d="M37.624,10.186l-6.769-3.9h0c-2.672-1.416-6.1-1.214-9.85.948C12.483,12.157,5.575,25.355,5.575,36.717c0,6.246,2.091,10.631,5.386,12.5l0,.005,6.186,3.571Z" transform="translate(11.159 10.907)" fill="url(#linear-gradient-3)"/>
      <ellipse id="Oval-4" data-name="Oval" cx="23.687" cy="13.4" rx="23.687" ry="13.4" transform="matrix(0.392, -0.92, 0.92, 0.392, 16.951, 58.98)" fill="#e9e5f6"/>
    </g>
  </g>
</svg>
