<svg id="noun_payment_2816750" xmlns="http://www.w3.org/2000/svg" width="57.295" height="64" viewBox="0 0 57.295 64">
  <path id="Path" d="M26.318,20.966c-1.119.04-2.469-1.274-2.853-1.747a1.477,1.477,0,0,0-2.3,1.849,9.162,9.162,0,0,0,2.9,2.315v1.858a1.478,1.478,0,1,0,2.957,0V23.832a4.525,4.525,0,0,0,3.007-1.764,4.767,4.767,0,0,0,.708-4.024,4.876,4.876,0,0,0-3.543-3.477,5.189,5.189,0,0,1-.554-.222,8.508,8.508,0,0,0-.872-.358c-.964-.352-1.477-.577-1.694-1.428a1.814,1.814,0,0,1,.226-1.545,1.683,1.683,0,0,1,1.326-.646c1.107-.058,2.472,1.276,2.852,1.744a1.478,1.478,0,1,0,2.308-1.848A8.523,8.523,0,0,0,27.022,7.63V6.1a1.478,1.478,0,1,0-2.957,0V7.714a4.43,4.43,0,0,0-2.151,1.552,4.776,4.776,0,0,0-.708,4.025,4.87,4.87,0,0,0,3.543,3.475,4.938,4.938,0,0,1,.553.22,8.778,8.778,0,0,0,.872.359c.964.353,1.478.578,1.694,1.43a1.806,1.806,0,0,1-.225,1.545A1.684,1.684,0,0,1,26.318,20.966Z" transform="translate(6.481 1.117)" fill="#f38801"/>
  <path id="Shape" d="M29.023,33.96A16.787,16.787,0,1,0,12.237,17.174,16.806,16.806,0,0,0,29.023,33.96Zm0-30.617a13.831,13.831,0,1,1-13.83,13.831A13.847,13.847,0,0,1,29.023,3.343Z" transform="translate(3.427 -0.386)" fill="#f38801"/>
  <path id="Shape-2" data-name="Shape" d="M57.286,32.323c-1.363-1.741-4.513-2.045-7.022-.679l-1.633.893c-4.9,2.679-11,6.011-14.007,7.056a3.346,3.346,0,0,1-2.575-1.078c-.661-.624-.822-1.155-.769-1.344s.532-.642,1.941-.93c1.916-.393,3.128-.585,4.108-.741.67-.106,1.236-.2,1.836-.318,4.528-.911,4.553-3.7,4.354-4.852-.553-3.187-4.506-3.187-6.867-3.187H24.684c-3.15,0-9.387,3.48-12.678,5.456a4.382,4.382,0,0,0-4.17-3.079H5.069A4.4,4.4,0,0,0,.677,33.913V48.065a4.4,4.4,0,0,0,4.392,4.392H7.835A4.394,4.394,0,0,0,11.9,49.706H15.57c1.965,1.008,10.305,5.178,13.711,5.178,4.275,0,23.67-13.371,26.988-16.989C58.888,35.038,57.852,33.047,57.286,32.323ZM7.835,49.5H5.069a1.438,1.438,0,0,1-1.435-1.435V33.912a1.438,1.438,0,0,1,1.435-1.435H7.835a1.438,1.438,0,0,1,1.437,1.435V48.063A1.437,1.437,0,0,1,7.835,49.5ZM54.09,35.9c-3.8,4.145-22.115,15.98-24.807,16.029-2.21,0-8.945-3.075-12.672-5.013a1.484,1.484,0,0,0-.681-.167h-3.7V35.928C16.09,33.51,22.351,30.1,24.685,30.1h11.97c1.744,0,3.848.127,3.953.736.056.327.173,1.007-2.024,1.447-.56.114-1.091.2-1.715.3-1.014.161-2.263.361-4.24.766-2.924.6-3.894,1.971-4.191,3.017a4.362,4.362,0,0,0,1.582,4.3C31.43,42,33.7,43.045,35.6,42.384c3.235-1.125,9.455-4.524,14.452-7.254l1.632-.89c1.459-.8,2.954-.515,3.28-.1C55.089,34.312,54.971,34.936,54.09,35.9Z" transform="translate(-0.677 9.116)" fill="#f38801"/>
</svg>
