<svg id="noun_Key-Ring_772464" xmlns="http://www.w3.org/2000/svg" width="38.215" height="64" viewBox="0 0 38.215 64">
  <path id="Shape" d="M34.556,11.852a9.28,9.28,0,0,0,.513-3.011A8.711,8.711,0,0,0,18.54,4.869a9.289,9.289,0,0,0-3.972.448,10.011,10.011,0,0,0-5.894,5.061,10.17,10.17,0,0,0,.769,10.507L7.969,23.768a1.083,1.083,0,0,0-.064.9l.7,2.627-1.538.9a1.45,1.45,0,0,0-.641.961l-.256,2.306L4.253,33.441a1.746,1.746,0,0,0-.384.769l-.192,2.178L1.883,38.31a1.125,1.125,0,0,0-.256.32L.153,41.513a1.1,1.1,0,0,0-.128.769L.6,46.446a1.256,1.256,0,0,0,1.217,1.089.813.813,0,0,0,.384-.064l4.549-1.538a1.164,1.164,0,0,0,.7-.641L16.49,27.355a11.824,11.824,0,0,0,4.356,3.78v4.1a1.218,1.218,0,0,0,.32.833l2.306,2.563-1.281,1.986a1.439,1.439,0,0,0-.128,1.153l1.025,2.691-1.025,3.267a1.828,1.828,0,0,0,0,.833l1.025,2.563-1.025,3.139a.813.813,0,0,0-.064.384v3.908a1.231,1.231,0,0,0,.256.769L25.2,63.487a1.13,1.13,0,0,0,.961.513h.128a1.265,1.265,0,0,0,.9-.384l4.1-4.164a1.265,1.265,0,0,0,.384-.9V31.2a11.927,11.927,0,0,0,6.535-10.7A11.323,11.323,0,0,0,34.556,11.852Zm-4.484,17.3h0a1.314,1.314,0,0,0-.833,1.217v27.74L26.548,60.8l-1.794-2.563V54.9l1.089-3.4a2.111,2.111,0,0,0,0-.9l-1.025-2.563,1.025-3.267a1.828,1.828,0,0,0,0-.833l-.961-2.5,1.409-2.306a1.254,1.254,0,0,0-.128-1.538l-2.627-2.883V30.366a1.314,1.314,0,0,0-.833-1.217,9.4,9.4,0,0,1,3.652-18.066,9.242,9.242,0,0,1,4.933,1.409,5.669,5.669,0,0,1-2.114,1.794,3.517,3.517,0,0,0-6.342,1.538h0v.448A3.513,3.513,0,0,0,26.355,19.8a3.564,3.564,0,0,0,3.459-2.947,8.1,8.1,0,0,0,3.459-2.755,9.31,9.31,0,0,1,2.434,6.342A9.251,9.251,0,0,1,30.071,29.149ZM26.355,2.563a6.221,6.221,0,0,1,6.15,6.278,9.558,9.558,0,0,1-.128,1.345,12.137,12.137,0,0,0-6.022-1.666,4.849,4.849,0,0,0-.961.064,9.18,9.18,0,0,0-3.2-2.627,7.118,7.118,0,0,0-1.025-.448A6.133,6.133,0,0,1,26.355,2.563ZM5.535,43.692l-2.563.9-.32-2.242,1.217-2.37,2.05-2.05a1.746,1.746,0,0,0,.384-.769L6.5,34.979l1.922-1.986a1.461,1.461,0,0,0,.384-.769L8.93,30.11l1.794-1.089a1.285,1.285,0,0,0,.577-1.409l-.833-3.075,1.6-3.139a1.169,1.169,0,0,0-.192-1.409,7.588,7.588,0,0,1-.961-8.392,7.384,7.384,0,0,1,4.42-3.78,7.2,7.2,0,0,1,5.638.448,7.274,7.274,0,0,1,1.473.961c-.384.128-.769.32-1.153.448a2.844,2.844,0,0,0-.7-.513,2.92,2.92,0,0,0-1.473-.32h-.192a2.725,2.725,0,0,0-.7.128,3.261,3.261,0,0,0-1.794,1.538,3.216,3.216,0,0,0,.192,3.139A11.954,11.954,0,0,0,14.439,20.5a12.528,12.528,0,0,0,.7,4.1Z" transform="translate(0 0)" fill="#f38801"/>
</svg>
