<svg xmlns="http://www.w3.org/2000/svg" width="47.714" height="32.446" viewBox="0 0 47.714 32.446">
  <g id="noun_Passport_177763" transform="translate(0 -0.477)">
    <g id="Group">
      <path id="Shape" d="M43.3.477H4.414A4.4,4.4,0,0,0,0,4.891V28.509a4.4,4.4,0,0,0,4.414,4.414H43.3a4.4,4.4,0,0,0,4.414-4.414V4.891A4.442,4.442,0,0,0,43.3.477ZM46.82,28.509A3.525,3.525,0,0,1,43.3,32.028H4.414A3.525,3.525,0,0,1,.895,28.509V4.891A3.525,3.525,0,0,1,4.414,1.372H43.3A3.525,3.525,0,0,1,46.82,4.891Z" fill="#f38801"/>
      <path id="Path" d="M41.69,6.5H26.839a.418.418,0,0,0,0,.835H41.69a.418.418,0,0,0,0-.835Z" fill="#f38801"/>
      <path id="Path-2" data-name="Path" d="M41.69,9.6H26.839a.418.418,0,0,0,0,.835H41.69a.408.408,0,0,0,.417-.417A.448.448,0,0,0,41.69,9.6Z" fill="#f38801"/>
      <path id="Path-3" data-name="Path" d="M41.69,12.764H26.839a.418.418,0,0,0,0,.835H41.69a.418.418,0,0,0,0-.835Z" fill="#f38801"/>
      <path id="Path-4" data-name="Path" d="M35.547,16.282H26.839a.418.418,0,0,0,0,.835h8.648A.408.408,0,0,0,35.9,16.7.336.336,0,0,0,35.547,16.282Z" fill="#f38801"/>
      <path id="Shape-2" data-name="Shape" d="M22.724,6.5H5.666a.408.408,0,0,0-.418.418V26.78l.06.06h0l.06.06h0a.058.058,0,0,1,.06.06H22.843a.058.058,0,0,0,.06-.06h0l.06-.06h0l.06-.06V6.978A.314.314,0,0,0,22.724,6.5Zm-.477.895V23.38A7.877,7.877,0,0,0,17.475,19.2c.06-.119.179-.179.238-.3a8.27,8.27,0,0,0,1.372-4.235,4.95,4.95,0,0,0-9.9,0,8.448,8.448,0,0,0,1.372,4.235,1.3,1.3,0,0,0,.239.3A8.049,8.049,0,0,0,6.024,23.38V7.4ZM10.08,14.672a4.056,4.056,0,0,1,8.111,0,7.408,7.408,0,0,1-1.252,3.757,3.785,3.785,0,0,1-2.8,1.909C11.929,20.279,10.08,16.879,10.08,14.672ZM6.143,26a7.416,7.416,0,0,1,5.308-6.084,3.762,3.762,0,0,0,2.684,1.253,3.762,3.762,0,0,0,2.684-1.253A7.317,7.317,0,0,1,22.128,26Z" fill="#f38801"/>
    </g>
  </g>
</svg>
