<svg xmlns="http://www.w3.org/2000/svg" xmlns:xlink="http://www.w3.org/1999/xlink" width="201.573" height="200" viewBox="0 0 201.573 200">
  <defs>
    <linearGradient id="linear-gradient" x1="0.383" y1="0.5" x2="0.52" y2="0.5" gradientUnits="objectBoundingBox">
      <stop offset="0" stop-color="#cc8241"/>
      <stop offset="1" stop-color="#dea861"/>
    </linearGradient>
    <linearGradient id="linear-gradient-2" x1="0.222" y1="0.404" x2="0.736" y2="0.582" gradientUnits="objectBoundingBox">
      <stop offset="0" stop-color="#dea861"/>
      <stop offset="1" stop-color="#ebcba0"/>
    </linearGradient>
    <linearGradient id="linear-gradient-3" x1="0.485" y1="0.544" x2="0.587" y2="0.224" gradientUnits="objectBoundingBox">
      <stop offset="0" stop-color="#ab2c37"/>
      <stop offset="1" stop-color="#ff7a85"/>
    </linearGradient>
    <linearGradient id="linear-gradient-4" x1="0.341" y1="0.675" x2="0.73" y2="0.276" gradientUnits="objectBoundingBox">
      <stop offset="0" stop-color="#ff4757"/>
      <stop offset="1" stop-color="#ff7a85"/>
    </linearGradient>
    <linearGradient id="linear-gradient-5" x1="0.479" y1="0.411" x2="0.569" y2="0.179" gradientUnits="objectBoundingBox">
      <stop offset="0" stop-color="#c5baeb"/>
      <stop offset="1" stop-color="#d7d1eb"/>
    </linearGradient>
  </defs>
  <g id="pickup" transform="translate(-0.11)">
    <g id="Group" transform="translate(0.11)">
      <path id="Path" d="M163.888,115.426V13.386L.11,20.409v102.04a6.877,6.877,0,0,0,3.471,6.013L68.46,165.92a14.913,14.913,0,0,0,14.913,0l77.043-44.481A6.877,6.877,0,0,0,163.888,115.426Z" transform="translate(-0.11 32.082)" fill="url(#linear-gradient)"/>
      <path id="Path-2" data-name="Path" d="M3.581,46.479,80.624,2A14.913,14.913,0,0,1,95.538,2l64.879,37.458a6.942,6.942,0,0,1,0,12.023L83.374,95.96a14.913,14.913,0,0,1-14.913,0L3.581,58.5A6.941,6.941,0,0,1,3.581,46.479Z" transform="translate(-0.11 0)" fill="url(#linear-gradient-2)"/>
      <path id="Path-3" data-name="Path" d="M8.486,18.379,91.235,66.154l21.95-12.673L30.436,5.707Z" transform="translate(19.966 13.677)" fill="#dea861"/>
      <g id="Path-4" data-name="Path" transform="translate(37.271 24.475)">
        <path id="路径_14" data-name="路径 14" d="M4.342.076,87.091,47.85l-4.3,2.482L.043,2.558Z" transform="translate(-0.043 -0.076)" fill="#cc8241"/>
        <path id="路径_15" data-name="路径 15" d="M21.807,25.314V43.442l21.95-12.673V12.641Z" transform="translate(52.121 30.041)" fill="#cc8241"/>
      </g>
    </g>
    <g id="Group-2" data-name="Group" transform="translate(120.105 58.305)">
      <path id="Path-5" data-name="Path" d="M65.035,9.929l-12.3-7.1c-5.92-4.1-14.054-3.86-22.965,1.822C13.607,14.958.554,40.148.033,62.014c-.226,9.512,1.885,17,5.606,21.943l-.006.008,19.9,25.448a3.847,3.847,0,0,0,1.211,1.039l12.336,7.122Z" transform="translate(-0.017 -0.03)" fill="url(#linear-gradient-3)"/>
      <path id="Path-6" data-name="Path" d="M66,29.426C66,5.81,51.245-4.69,33.354,6.716c-16.166,10.306-29.22,35.5-29.74,57.363-.226,9.512,1.885,17,5.606,21.943l-.005.008,19.9,25.448c2.792,3.57,8.575.232,11.367-6.562l19.9-48.429-.005,0A73.778,73.778,0,0,0,66,29.426Z" transform="translate(8.566 4.915)" fill="url(#linear-gradient-4)"/>
      <path id="Path-7" data-name="Path" d="M50.153,13.041,40.974,7.757v0C37.35,5.838,32.7,6.112,27.617,9.044,16.064,15.714,6.7,33.611,6.7,49.016c0,8.47,2.835,14.415,7.3,16.95l0,.007,8.387,4.842Z" transform="translate(15.994 15.559)" fill="url(#linear-gradient-5)"/>
      <ellipse id="Oval" cx="32.118" cy="18.17" rx="32.118" ry="18.17" transform="matrix(0.392, -0.92, 0.92, 0.392, 22.965, 79.952)" fill="#f2effa"/>
    </g>
  </g>
</svg>
