<svg id="noun_Document_3166700" xmlns="http://www.w3.org/2000/svg" width="46.979" height="48" viewBox="0 0 46.979 48">
  <g id="Group">
    <path id="Path" d="M35.234,48H6.638a.511.511,0,0,1-.511-.511V6.638a.511.511,0,0,1,.511-.511h4.085a.511.511,0,0,1,0,1.021H7.149v39.83H34.723V43.4a.511.511,0,1,1,1.021,0v4.085A.511.511,0,0,1,35.234,48Z" fill="#f38801"/>
    <path id="Path-2" data-name="Path" d="M41.362,8.17H35.234a.511.511,0,0,1-.511-.511V1.532a.511.511,0,0,1,1.021,0V7.149h5.617a.511.511,0,0,1,0,1.021Z" fill="#f38801"/>
    <circle id="Oval" cx="1.021" cy="1.021" r="1.021" transform="translate(2.553 20.936)" fill="#f38801"/>
    <circle id="Oval-2" data-name="Oval" cx="1.021" cy="1.021" r="1.021" transform="translate(1.532 10.723)" fill="#f38801"/>
    <circle id="Oval-3" data-name="Oval" cx="1.021" cy="1.021" r="1.021" transform="translate(4.596 1.532)" fill="#f38801"/>
    <circle id="Oval-4" data-name="Oval" cx="1.021" cy="1.021" r="1.021" transform="translate(44.426 39.319)" fill="#f38801"/>
    <circle id="Oval-5" data-name="Oval" cx="1.021" cy="1.021" r="1.021" transform="translate(36.255 38.298)" fill="#f38801"/>
    <path id="Path-3" data-name="Path" d="M41.362,43.915H10.723a.511.511,0,0,1-.511-.511V1.532a.511.511,0,0,1,.511-.511H35.234a.511.511,0,0,1,.361.15L41.723,7.3a.51.51,0,0,1,.15.361v11.8a.511.511,0,1,1-1.021,0V7.871L35.022,2.043H11.234V42.894H40.851V31.849a.511.511,0,1,1,1.021,0V43.4A.511.511,0,0,1,41.362,43.915Z" fill="#f38801"/>
    <circle id="Oval-6" data-name="Oval" cx="1.021" cy="1.021" r="1.021" transform="translate(2.553 40.34)" fill="#f38801"/>
    <path id="Shape" d="M2.043,35.745A2.043,2.043,0,1,1,4.085,33.7,2.045,2.045,0,0,1,2.043,35.745Zm0-3.064A1.021,1.021,0,1,0,3.064,33.7,1.022,1.022,0,0,0,2.043,32.681Z" fill="#f38801"/>
    <path id="Shape-2" data-name="Shape" d="M44.425,5.106a2.553,2.553,0,1,1,2.553-2.553A2.556,2.556,0,0,1,44.425,5.106Zm0-4.085a1.532,1.532,0,1,0,1.532,1.532A1.534,1.534,0,0,0,44.425,1.021Z" fill="#f38801"/>
    <path id="Path-4" data-name="Path" d="M34.213,39.83H10.723a.511.511,0,0,1,0-1.021H34.213a.511.511,0,0,1,0,1.021Z" fill="#f38801"/>
    <path id="Path-5" data-name="Path" d="M28.085,7.149H15.83a.511.511,0,1,1,0-1.021H28.085a.511.511,0,0,1,0,1.021Z" fill="#f38801"/>
    <path id="Path-6" data-name="Path" d="M28.085,10.213H15.83a.511.511,0,1,1,0-1.021H28.085a.511.511,0,0,1,0,1.021Z" fill="#f38801"/>
    <path id="Path-7" data-name="Path" d="M19.915,13.277H15.83a.511.511,0,1,1,0-1.021h4.085a.511.511,0,0,1,0,1.021Z" fill="#f38801"/>
    <path id="Path-8" data-name="Path" d="M20.936,20.426H15.83a.511.511,0,1,1,0-1.021h5.106a.511.511,0,1,1,0,1.021Z" fill="#f38801"/>
    <path id="Path-9" data-name="Path" d="M22.979,23.489H15.83a.511.511,0,1,1,0-1.021h7.149a.511.511,0,1,1,0,1.021Z" fill="#f38801"/>
    <path id="Path-10" data-name="Path" d="M19.915,26.553H15.83a.511.511,0,1,1,0-1.021h4.085a.511.511,0,0,1,0,1.021Z" fill="#f38801"/>
    <path id="Path-11" data-name="Path" d="M24,29.617H15.83a.511.511,0,1,1,0-1.021H24a.511.511,0,0,1,0,1.021Z" fill="#f38801"/>
    <path id="Path-12" data-name="Path" d="M35.486,34.723a9.063,9.063,0,0,1-9.074-9.364A9.062,9.062,0,0,1,41.8,19.174a.511.511,0,1,1-.713.731,7.992,7.992,0,0,0-5.615-2.288h-.059a8.042,8.042,0,0,0-5.547,13.809,8.044,8.044,0,0,0,13.145-8.571.511.511,0,0,1,.957-.356,9.077,9.077,0,0,1-7.932,12.207Q35.76,34.723,35.486,34.723Z" fill="#f38801"/>
    <path id="Shape-3" data-name="Shape" d="M36,30.682a.508.508,0,0,1-.361-.15l-3.888-3.888A2.343,2.343,0,1,1,35.06,23.33l.935.935,6.983-6.983A2.343,2.343,0,1,1,46.292,20.6l-9.936,9.936A.509.509,0,0,1,36,30.682ZM33.4,23.665a1.322,1.322,0,0,0-.935,2.257L36,29.449l9.575-9.575A1.322,1.322,0,1,0,43.7,18l-7.344,7.344a.51.51,0,0,1-.722,0l-1.3-1.3A1.314,1.314,0,0,0,33.4,23.665Z" fill="#f38801"/>
  </g>
</svg>
