<svg xmlns="http://www.w3.org/2000/svg" xmlns:xlink="http://www.w3.org/1999/xlink" width="283" height="232" viewBox="0 0 283 232">
  <defs>
    <linearGradient id="linear-gradient" x1="0.485" y1="0.544" x2="0.587" y2="0.224" gradientUnits="objectBoundingBox">
      <stop offset="0" stop-color="#ab2c37"/>
      <stop offset="1" stop-color="#ff7a85"/>
    </linearGradient>
    <linearGradient id="linear-gradient-2" x1="0.341" y1="0.676" x2="0.73" y2="0.277" gradientUnits="objectBoundingBox">
      <stop offset="0" stop-color="#ff4757"/>
      <stop offset="1" stop-color="#ff7a85"/>
    </linearGradient>
    <linearGradient id="linear-gradient-3" x1="0.479" y1="0.411" x2="0.569" y2="0.179" gradientUnits="objectBoundingBox">
      <stop offset="0" stop-color="#c5baeb"/>
      <stop offset="1" stop-color="#d7d1eb"/>
    </linearGradient>
    <linearGradient id="linear-gradient-5" x1="0.341" y1="0.676" x2="0.73" y2="0.278" xlink:href="#linear-gradient-2"/>
  </defs>
  <g id="组_10" data-name="组 10" transform="translate(-0.207 0.43)">
    <path id="多边形_1" data-name="多边形 1" d="M107.351,55.991c15.591-25.562,52.708-25.562,68.3,0L245.9,171.172C262.157,197.827,242.972,232,211.751,232H71.249c-31.222,0-50.407-34.173-34.149-60.828Z" transform="translate(0.207 -0.43)" fill="#fff5e8"/>
    <g id="distance" transform="translate(103.672 104.951)">
      <g id="Group" transform="translate(8.433 15.931)">
        <path id="Path" d="M2.906,17.508a1.312,1.312,0,1,1,.925-.383A1.32,1.32,0,0,1,2.906,17.508Z" transform="translate(0.4 4.127)" fill="#7662bd"/>
        <path id="Shape" d="M16.8,67.979a1.315,1.315,0,1,1,.008,0Zm3.951-1.6a1.311,1.311,0,1,1,1.574.986,1.456,1.456,0,0,1-.3.034A1.314,1.314,0,0,1,20.753,66.382Zm-9.468.928a1.309,1.309,0,1,1,.309.037,1.382,1.382,0,0,1-.309-.037Zm14.522-2.4a1.314,1.314,0,0,1,.6-1.754h0a1.311,1.311,0,1,1-.6,1.754Zm-19.738.485a1.309,1.309,0,1,1,.59.142,1.312,1.312,0,0,1-.59-.142Zm24.363-3a1.313,1.313,0,1,1,1.135.653A1.312,1.312,0,0,1,30.432,62.394ZM1.564,61.61a1.307,1.307,0,1,1,1.1.6,1.31,1.31,0,0,1-1.1-.6Zm33.423-1.859a1.309,1.309,0,1,1,1.136.656,1.311,1.311,0,0,1-1.136-.656Zm4.557-2.641a1.313,1.313,0,1,1,1.136.653,1.311,1.311,0,0,1-1.136-.653ZM1.278,57.2a1.3,1.3,0,1,1,.071,0l-.071,0ZM44.1,54.467a1.306,1.306,0,1,1,1.135.655,1.309,1.309,0,0,1-1.135-.655Zm4.555-2.641a1.311,1.311,0,1,1,1.794.477,1.332,1.332,0,0,1-.658.176,1.312,1.312,0,0,1-1.136-.653Zm-46.287.241a1.311,1.311,0,1,1,.826.294,1.3,1.3,0,0,1-.826-.294Zm3.92-3.435a1.312,1.312,0,1,1,1.791.477,1.3,1.3,0,0,1-.656.176A1.311,1.311,0,0,1,6.289,48.633Zm4.557-2.638a1.312,1.312,0,1,1,1.794.477,1.3,1.3,0,0,1-.655.176,1.313,1.313,0,0,1-1.138-.653Zm4.56-2.638a1.306,1.306,0,1,1,1.136.656A1.311,1.311,0,0,1,15.407,43.357Zm4.558-2.638a1.312,1.312,0,1,1,1.791.477,1.283,1.283,0,0,1-.653.178,1.315,1.315,0,0,1-1.138-.656Zm4.56-2.638a1.306,1.306,0,1,1,1.136.655,1.309,1.309,0,0,1-1.136-.655Zm4.557-2.638a1.315,1.315,0,1,1,1.138.655,1.312,1.312,0,0,1-1.138-.655Zm4.56-2.638a1.311,1.311,0,1,1,1.791.48,1.324,1.324,0,0,1-.655.176,1.3,1.3,0,0,1-1.136-.656ZM38.2,30.167a1.311,1.311,0,1,1,1.794.48,1.329,1.329,0,0,1-.656.176,1.316,1.316,0,0,1-1.138-.656Zm4.56-2.638a1.311,1.311,0,1,1,1.135.656,1.311,1.311,0,0,1-1.135-.656Zm4.557-2.635a1.312,1.312,0,1,1,1.791.477,1.288,1.288,0,0,1-.655.176,1.312,1.312,0,0,1-1.136-.653Zm4.56-2.638a1.31,1.31,0,1,1,1.791.477,1.312,1.312,0,0,1-1.791-.477Zm4.61-2.586a1.309,1.309,0,0,1,.047-1.851v0a1.312,1.312,0,1,1-.047,1.854ZM6.767,18.378a1.311,1.311,0,1,1,1.135.656,1.312,1.312,0,0,1-1.135-.656Zm4.56-2.633a1.311,1.311,0,1,1,1.138.656,1.311,1.311,0,0,1-1.138-.656ZM59.654,15.5a1.31,1.31,0,1,1,.233.021,1.48,1.48,0,0,1-.233-.021ZM15.889,13.11a1.311,1.311,0,1,1,1.791.48,1.311,1.311,0,0,1-1.791-.48Zm4.56-2.633a1.311,1.311,0,1,1,1.791.48,1.285,1.285,0,0,1-.653.176,1.316,1.316,0,0,1-1.138-.655Zm37.574-.844a1.311,1.311,0,1,1,1.746.621,1.3,1.3,0,0,1-.561.126A1.309,1.309,0,0,1,58.023,9.633ZM25.012,7.844a1.311,1.311,0,1,1,1.135.655,1.312,1.312,0,0,1-1.135-.655Zm29.967-1.39a1.311,1.311,0,1,1,.655.176,1.311,1.311,0,0,1-.655-.176ZM29.572,5.211a1.306,1.306,0,1,1,1.136.655,1.311,1.311,0,0,1-1.136-.655Zm20.907-1.1a1.31,1.31,0,0,1,.973-2.433h0A1.311,1.311,0,0,1,50.966,4.2a1.329,1.329,0,0,1-.488-.094ZM34.242,2.778a1.312,1.312,0,1,1,1.652.844,1.365,1.365,0,0,1-.4.063,1.315,1.315,0,0,1-1.248-.907ZM45.7,2.815a1.3,1.3,0,1,1,.2.016,1.265,1.265,0,0,1-.2-.016ZM39.335,1.451a1.312,1.312,0,1,1,1.416,1.2c-.037,0-.073.005-.11.005A1.315,1.315,0,0,1,39.335,1.451Z" transform="translate(-0.036 -0.031)" fill="#7662bd"/>
        <path id="Path-2" data-name="Path" d="M42.771,39.512a1.312,1.312,0,1,1,.928-.386A1.331,1.331,0,0,1,42.771,39.512Z" transform="translate(11.558 10.286)" fill="#7662bd"/>
      </g>
      <ellipse id="Oval" cx="8.722" cy="4.934" rx="8.722" ry="4.934" transform="translate(2.448 32.783) rotate(-6.947)" fill="#7662bd"/>
      <g id="Group-2" data-name="Group">
        <path id="Path-3" data-name="Path" d="M19.452,6.831l.9-3.747L16.526.872c-1.844-1.278-4.377-1.2-7.153.567C4.337,4.65.271,12.5.109,19.307a10.9,10.9,0,0,0,1.746,6.835l0,0,6.2,7.927a1.2,1.2,0,0,0,.377.324l3.842,2.218,3.639-15.093,1.882-4.579h0a22.987,22.987,0,0,0,1.751-8.428A15.851,15.851,0,0,0,19.452,6.831Z" transform="translate(-0.103 0)" fill="url(#linear-gradient)"/>
        <path id="Path-4" data-name="Path" d="M22.5,10.219c0-7.356-4.6-10.627-10.17-7.074C7.3,6.356,3.231,14.2,3.069,21.013a10.9,10.9,0,0,0,1.746,6.835l0,0,6.2,7.927c.87,1.112,2.671.072,3.541-2.044l6.2-15.085h0A22.99,22.99,0,0,0,22.5,10.219Z" transform="translate(0.725 0.478)" fill="url(#linear-gradient-2)"/>
        <path id="Path-5" data-name="Path" d="M19.162,7.4,16.3,5.758h0a4.22,4.22,0,0,0-4.16.4c-3.6,2.078-6.517,7.652-6.517,12.451,0,2.638.883,4.49,2.275,5.28v0L10.512,25.4Z" transform="translate(1.442 1.505)" fill="url(#linear-gradient-3)"/>
        <ellipse id="Oval-2" data-name="Oval" cx="10.004" cy="5.66" rx="10.004" ry="5.66" transform="matrix(0.392, -0.92, 0.92, 0.392, 7.141, 24.891)" fill="#e9e5f6"/>
      </g>
      <ellipse id="Oval-3" data-name="Oval" cx="8.722" cy="4.934" rx="8.722" ry="4.934" transform="translate(53.351 61.147) rotate(-6.947)" fill="#7662bd"/>
      <g id="Group-3" data-name="Group" transform="translate(50.885 28.355)">
        <path id="Path-6" data-name="Path" d="M19.4,6.841l.9-3.747L16.475.882C14.631-.4,12.1-.32,9.322,1.449,4.286,4.66.22,12.506.058,19.317A10.9,10.9,0,0,0,1.8,26.152l0,0L8,34.081a1.2,1.2,0,0,0,.377.324l3.842,2.218L15.86,21.531l1.882-4.578h0a22.987,22.987,0,0,0,1.751-8.428,15.851,15.851,0,0,0-.09-1.683Z" transform="translate(-0.053 -0.01)" fill="url(#linear-gradient)"/>
        <path id="Path-7" data-name="Path" d="M22.452,10.229c0-7.356-4.6-10.627-10.17-7.074-5.035,3.21-9.1,11.057-9.264,17.868a10.9,10.9,0,0,0,1.746,6.835l0,0,6.2,7.927c.87,1.112,2.671.072,3.541-2.044l6.2-15.085h0a22.994,22.994,0,0,0,1.751-8.428Z" transform="translate(0.776 0.467)" fill="url(#linear-gradient-5)"/>
        <path id="Path-8" data-name="Path" d="M19.111,7.414,16.252,5.768h0a4.22,4.22,0,0,0-4.16.4c-3.6,2.078-6.517,7.652-6.517,12.451,0,2.638.883,4.49,2.275,5.28v0l2.613,1.508Z" transform="translate(1.493 1.495)" fill="url(#linear-gradient-3)"/>
        <ellipse id="Oval-4" data-name="Oval" cx="10.004" cy="5.66" rx="10.004" ry="5.66" transform="matrix(0.392, -0.92, 0.92, 0.392, 7.16, 24.911)" fill="#e9e5f6"/>
      </g>
    </g>
  </g>
</svg>
