<svg id="noun_insurance_3469904" xmlns="http://www.w3.org/2000/svg" width="44" height="44" viewBox="0 0 44 44">
  <g id="Group">
    <rect id="Rectangle" width="2.933" height="1.467" transform="translate(11.733 31.533)" fill="#ff8d00"/>
    <rect id="Rectangle-2" data-name="Rectangle" width="2.933" height="1.467" transform="translate(23.467 31.533)" fill="#ff8d00"/>
    <rect id="Rectangle-3" data-name="Rectangle" width="1.467" height="1.467" transform="translate(24.933 38.867)" fill="#ff8d00"/>
    <rect id="Rectangle-4" data-name="Rectangle" width="1.467" height="1.467" transform="translate(7.333 38.867)" fill="#ff8d00"/>
    <path id="Shape" d="M41.8,0H13.933a2.2,2.2,0,0,0-2.2,2.2V23.576L7.715,28.6H1.467A1.467,1.467,0,0,0,0,30.067v8.8a1.467,1.467,0,0,0,1.467,1.467H3.733a4.393,4.393,0,0,0,8.02,1.661A2.2,2.2,0,0,0,13.933,44H41.8A2.2,2.2,0,0,0,44,41.8V2.2A2.2,2.2,0,0,0,41.8,0ZM36.667,1.467H39.6v4.4l-.88-1.173a.76.76,0,0,0-1.173,0l-.88,1.173ZM30,38.867a4.395,4.395,0,0,0-8.668,0H17.6v-8.8h8.8a.733.733,0,0,0,.61-1.14l-2.933-4.4a.733.733,0,0,0-.61-.326H13.112l.953-1.191a.733.733,0,0,1,.573-.276h9.533a.734.734,0,0,1,.6.312l4.473,6.4a1.467,1.467,0,0,0,1.2.626h1.818v8.8Zm-7.267.733a2.933,2.933,0,1,1,2.933,2.933A2.933,2.933,0,0,1,22.733,39.6Zm.341-13.933L25.03,28.6H17.6V25.667Zm-11.136,0h4.195V28.6H9.592ZM1.467,33H2.933v1.467H1.467Zm6.6,9.533A2.933,2.933,0,1,1,11,39.6,2.933,2.933,0,0,1,8.067,42.533Zm0-7.333a4.4,4.4,0,0,0-4.334,3.667H1.467V35.933h2.2A.733.733,0,0,0,4.4,35.2V32.267a.733.733,0,0,0-.733-.733h-2.2V30.067H16.133v8.8H12.4A4.4,4.4,0,0,0,8.067,35.2ZM13.2,41.8V40.333h8.133a4.384,4.384,0,0,0,1.063,2.2H13.933A.733.733,0,0,1,13.2,41.8Zm29.333,0a.733.733,0,0,1-.733.733H28.937A4.384,4.384,0,0,0,30,40.333h2.266a1.467,1.467,0,0,0,1.467-1.467v-8.8A1.467,1.467,0,0,0,32.267,28.6H30.449l-4.477-6.395a2.2,2.2,0,0,0-1.8-.939H14.637a2.18,2.18,0,0,0-1.437.547V2.2a.733.733,0,0,1,.733-.733H35.2v6.6a.733.733,0,0,0,1.32.44l1.613-2.151,1.613,2.151a.733.733,0,0,0,.587.293.747.747,0,0,0,.232-.037.733.733,0,0,0,.5-.7v-6.6H41.8a.733.733,0,0,1,.733.733Z" fill="#ff8d00"/>
    <path id="Shape-2" data-name="Shape" d="M20.86,16.01a.733.733,0,0,0,.814,0l3.093-2.062A3.657,3.657,0,0,0,26.4,10.9V5.133a.733.733,0,0,0-.733-.733h-8.8a.733.733,0,0,0-.733.733V10.9a3.661,3.661,0,0,0,1.633,3.051ZM17.6,5.867h7.333V10.9a2.193,2.193,0,0,1-.98,1.833l-2.687,1.79L18.58,12.729A2.2,2.2,0,0,1,17.6,10.9Z" fill="#ff8d00"/>
    <path id="Path" d="M20.533,11.733a.733.733,0,0,0,.518-.215l2.933-2.933L22.948,7.548,20.533,9.963l-.948-.948-1.037,1.037,1.467,1.467A.733.733,0,0,0,20.533,11.733Z" fill="#ff8d00"/>
    <rect id="Rectangle-5" data-name="Rectangle" width="8.8" height="1.467" transform="translate(29.333 14.667)" fill="#ff8d00"/>
    <rect id="Rectangle-6" data-name="Rectangle" width="2.933" height="1.467" transform="translate(29.333 11.733)" fill="#ff8d00"/>
    <rect id="Rectangle-7" data-name="Rectangle" width="4.4" height="1.467" transform="translate(33.733 11.733)" fill="#ff8d00"/>
    <rect id="Rectangle-8" data-name="Rectangle" width="20.533" height="1.467" transform="translate(17.6 17.6)" fill="#ff8d00"/>
    <rect id="Rectangle-9" data-name="Rectangle" width="5.867" height="1.467" transform="translate(32.267 20.533)" fill="#ff8d00"/>
    <rect id="Rectangle-10" data-name="Rectangle" width="2.933" height="1.467" transform="translate(27.867 20.533)" fill="#ff8d00"/>
    <rect id="Rectangle-11" data-name="Rectangle" width="8.8" height="1.467" transform="translate(29.333 23.467)" fill="#ff8d00"/>
  </g>
</svg>
